<svg width="1920" height="1080" viewBox="0 0 1920 1080" xmlns="http://www.w3.org/2000/svg"><rect width="1920" height="1080" fill="#202c4d"/><path d="M 0,1080 C 0,1080 0,270 0,270 C 91.86153846153846,316.3205128205128 183.72307692307692,362.6410256410257 275,367 C 366.2769230769231,371.3589743589743 456.96923076923076,333.75641025641016 586,323 C 715.0307692307692,312.24358974358984 882.4000000000001,328.33333333333337 1013,315 C 1143.6,301.66666666666663 1237.4307692307693,258.9102564102564 1327,233 C 1416.5692307692307,207.0897435897436 1501.876923076923,198.02564102564102 1600,207 C 1698.123076923077,215.97435897435898 1809.0615384615385,242.9871794871795 1920,270 C 1920,270 1920,1080 1920,1080 Z" fill="#4f5972" opacity="0.15"/><path d="M 0,1080 C 0,1080 0,540 0,540 C 74.77692307692308,503.9307692307692 149.55384615384617,467.8615384615385 268,453 C 386.44615384615383,438.1384615384615 548.5615384615384,444.4846153846154 653,444 C 757.4384615384616,443.5153846153846 804.2000000000002,436.19999999999993 902,450 C 999.7999999999998,463.80000000000007 1148.6384615384616,498.71538461538466 1281,537 C 1413.3615384615384,575.2846153846153 1529.246153846154,616.9384615384615 1633,618 C 1736.753846153846,619.0615384615385 1828.376923076923,579.5307692307692 1920,540 C 1920,540 1920,1080 1920,1080 Z" fill="#4f5972" opacity="0.3"/><path d="M 0,1080 C 0,1080 0,810 0,810 C 124.7435897435897,810.5846153846154 249.4871794871794,811.1692307692308 340,822 C 430.5128205128206,832.8307692307692 486.79487179487194,853.9076923076924 603,826 C 719.2051282051281,798.0923076923076 895.3333333333333,721.1999999999999 1005,719 C 1114.6666666666667,716.8000000000001 1157.871794871795,789.2923076923078 1257,800 C 1356.128205128205,810.7076923076922 1511.1794871794873,759.6307692307693 1631,751 C 1750.8205128205127,742.3692307692307 1835.4102564102564,776.1846153846154 1920,810 C 1920,810 1920,1080 1920,1080 Z" fill="#4f5972" opacity="0.44999999999999996"/></svg>